<svg
    id="board"
    xmlns="http://www.w3.org/2000/svg"
    xmlns:cc="http://creativecommons.org/ns#"
    xmlns:dc="http://purl.org/dc/elements/1.1/"
    xmlns:rdf="http://www.w3.org/1999/02/22-rdf-syntax-ns#"
    xmlns:xlink="http://www.w3.org/1999/xlink"
    version="1.1"
    width="600" height="600"
    viewBox="0 0 2000 2000"
    preserveAspectRatio="xMidYMid meet" >
    <g id="boardLayer">
    </g>
    <g id="pawnLayer" >
        <g id="player0Container">
            <svg
                xmlns:dc="http://purl.org/dc/elements/1.1/"
                xmlns:cc="http://creativecommons.org/ns#"
                xmlns:rdf="http://www.w3.org/1999/02/22-rdf-syntax-ns#"
                xmlns:svg="http://www.w3.org/2000/svg"
                xmlns="http://www.w3.org/2000/svg"
                version="1.1"
                id="player0"
                height="90" width="90"
                viewBox="0 0 135 135"
                preserveAspectRatio="xMinYMin meet"
                x="808" y="1872"
                ng-class="{hidden: activePawns.indexOf('player0') === -1}"
            >
                <path
                    style="stroke:#000000;stroke-width:0.5;stroke-miterlimit:10"
                    d="m 67.657588,78.441209 c 8.914,2.378 18.313,3.944 27.775,1.969 1.377,-0.186 2.746,-0.44 4.104,-0.775 2.713002,-0.673 5.373002,-1.666 7.955002,-3.063 1.043,-0.507 2.066,-1.052 3.076,-1.634 4.039,-2.328 7.83,-5.24 11.434,-8.218 1.143,-0.88 2.191,-1.831 3.154,-2.839 0.961,-1.009 1.836,-2.077 2.643,-3.197 0.83,-1.042 1.576,-2.119 2.244,-3.229 0.668,-1.11 1.256,-2.25 1.77,-3.416 2.732,-6.779 3.805,-14.869 2.609,-22.446 -0.199,-1.263 -0.461,-2.511 -0.791,-3.737 -0.689,-4.371 -2.717,-7.875 -5.355,-10.959 -0.875,-1.043 -1.82,-2.042 -2.813,-3.066 -4.244,-4.2899996 -8.16,-8.9889996 -12.469,-13.29799961 -1.174,8.61600001 6.266,14.49099961 8.537,22.43799961 0.406,1.183 0.717,2.393 0.898,3.642 0.186,1.25 0.242,2.538 0.141,3.874 -0.07,1.394 -0.289,2.753 -0.646,4.076 -1.08,3.969 -3.418,7.618 -7.16,10.281 -1.078,0.839 -2.209,1.633 -3.391,2.388 -4.135,2.646 -8.967,4.826 -13.721002,6.81 -1.189,0.496 -2.373,0.979 -3.541,1.457 -10.098,2.606 -15.189,12.397 -21.457,20.23 -0.783,0.784 -1.566,1.958 -3.227,2.068 -1.032,0.413 -1.769,0.644 -1.769,0.644 z"
                    stroke-miterlimit="10" />
                <path
                    style="stroke:#000000;stroke-width:0.5;stroke-miterlimit:10"
                    d="m 67.499588,78.441209 c -8.913,2.378 -18.313,3.944 -27.776,1.969 -1.376,-0.186 -2.746,-0.44 -4.103,-0.775 -2.713,-0.673 -5.373,-1.666 -7.954,-3.063 -1.043,-0.507 -2.068,-1.052 -3.078,-1.634 -4.039,-2.328 -7.829,-5.24 -11.433,-8.218 -1.143,-0.88 -2.192,-1.831 -3.154,-2.839 -0.9620002,-1.009 -1.8360002,-2.077 -2.6430002,-3.198 -0.831,-1.042 -1.578,-2.119 -2.246,-3.228 -0.668,-1.11 -1.256,-2.25 -1.769,-3.416 -2.73199997,-6.779 -3.80399997,-14.869 -2.60899997,-22.446 0.199,-1.263 0.46099997,-2.511 0.79099997,-3.737 0.689,-4.372 2.717,-7.875 5.355,-10.959 0.876,-1.043 1.821,-2.042 2.813,-3.066 C 13.937588,9.5402094 17.853588,4.8412094 22.161588,0.53320939 c 1.175,8.61600001 -6.266,14.49099961 -8.538,22.43799961 -0.405,1.182 -0.715,2.393 -0.898,3.642 -0.185,1.25 -0.241,2.538 -0.141,3.874 0.071,1.393 0.289,2.752 0.647,4.076 1.08,3.969 3.418,7.618 7.161,10.281 1.079,0.839 2.208,1.633 3.391,2.388 4.134,2.646 8.967,4.826 13.721,6.809 1.188,0.496 2.373,0.979 3.54,1.457 10.099,2.606 15.191,12.397 21.457,20.23 0.783,0.784 1.566,1.958 3.228,2.068 1.034,0.414 1.77,0.645 1.77,0.645 z"
                    stroke-miterlimit="10" />
                <circle
                    class="pawnCircle"
                    r="37.120998"
                    cy="54.803211"
                    cx="67.298599"
                    stroke-miterlimit="10" />
                <g
                    transform="translate(-309.37541,-96.287791)">
                    <path
                        style="stroke:#000000;stroke-width:0.5;stroke-miterlimit:10"
                        d="m 376.82,210.512 c 0,0 -0.793,-1.354 -1.985,-3.391 -5.117,-9.039 -14.374,-15.334 -17.336,-25.33 7.405,6.664 18.143,7.035 27.824,6.915 2.354,-0.015 3.925,-0.024 3.925,-0.024 l -12.428,21.83 z"
                        stroke-miterlimit="10" />
                    <path
                        style="stroke:#000000;stroke-width:0.5;stroke-miterlimit:10"
                        d="m 376.961,210.512 c 0,0 0.793,-1.354 1.986,-3.391 5.117,-9.039 14.373,-15.334 17.336,-25.33 -7.406,6.664 -18.143,7.035 -27.824,6.915 -2.355,-0.015 -3.925,-0.024 -3.925,-0.024 l 12.427,21.83 z"
                        stroke-miterlimit="10" />
                </g>
                <g
                    transform="translate(-309.37541,-96.287791)">
                    <path
                        style="stroke:#000000;stroke-width:0.5;stroke-miterlimit:10"
                        d="m 376.789,224.731 c 0,0 -0.965,-1.648 -2.415,-4.125 -6.226,-10.999 -17.488,-18.657 -21.092,-30.819 9.01,8.108 22.074,8.559 33.853,8.414 2.864,-0.018 4.774,-0.029 4.774,-0.029 l -15.12,26.559 z"
                        stroke-miterlimit="10" />
                    <path
                        style="stroke:#000000;stroke-width:0.5;stroke-miterlimit:10"
                        d="m 376.961,224.731 c 0,0 0.965,-1.648 2.416,-4.125 6.225,-10.999 17.488,-18.657 21.092,-30.819 -9.01,8.108 -22.074,8.559 -33.853,8.414 -2.865,-0.018 -4.775,-0.029 -4.775,-0.029 l 15.12,26.559 z"
                        stroke-miterlimit="10" />
                </g>
            </svg>
        </g>
        <g id="player1Container" transform="rotate(315 985 985)">
            <svg
                xmlns:dc="http://purl.org/dc/elements/1.1/"
                xmlns:cc="http://creativecommons.org/ns#"
                xmlns:rdf="http://www.w3.org/1999/02/22-rdf-syntax-ns#"
                xmlns:svg="http://www.w3.org/2000/svg"
                xmlns="http://www.w3.org/2000/svg"
                version="1.1"
                id="player1"
                height="90" width="90"
                viewBox="0 0 135 135"
                preserveAspectRatio="xMinYMin meet"
                x="808" y="1872"
                ng-class="{hidden: activePawns.indexOf('player1') === -1}"
            >
                <path
                    style="stroke:#000000;stroke-width:0.5;stroke-miterlimit:10"
                    d="m 67.657588,78.441209 c 8.914,2.378 18.313,3.944 27.775,1.969 1.377,-0.186 2.746,-0.44 4.104,-0.775 2.713002,-0.673 5.373002,-1.666 7.955002,-3.063 1.043,-0.507 2.066,-1.052 3.076,-1.634 4.039,-2.328 7.83,-5.24 11.434,-8.218 1.143,-0.88 2.191,-1.831 3.154,-2.839 0.961,-1.009 1.836,-2.077 2.643,-3.197 0.83,-1.042 1.576,-2.119 2.244,-3.229 0.668,-1.11 1.256,-2.25 1.77,-3.416 2.732,-6.779 3.805,-14.869 2.609,-22.446 -0.199,-1.263 -0.461,-2.511 -0.791,-3.737 -0.689,-4.371 -2.717,-7.875 -5.355,-10.959 -0.875,-1.043 -1.82,-2.042 -2.813,-3.066 -4.244,-4.2899996 -8.16,-8.9889996 -12.469,-13.29799961 -1.174,8.61600001 6.266,14.49099961 8.537,22.43799961 0.406,1.183 0.717,2.393 0.898,3.642 0.186,1.25 0.242,2.538 0.141,3.874 -0.07,1.394 -0.289,2.753 -0.646,4.076 -1.08,3.969 -3.418,7.618 -7.16,10.281 -1.078,0.839 -2.209,1.633 -3.391,2.388 -4.135,2.646 -8.967,4.826 -13.721002,6.81 -1.189,0.496 -2.373,0.979 -3.541,1.457 -10.098,2.606 -15.189,12.397 -21.457,20.23 -0.783,0.784 -1.566,1.958 -3.227,2.068 -1.032,0.413 -1.769,0.644 -1.769,0.644 z"
                    stroke-miterlimit="10" />
                <path
                    style="stroke:#000000;stroke-width:0.5;stroke-miterlimit:10"
                    d="m 67.499588,78.441209 c -8.913,2.378 -18.313,3.944 -27.776,1.969 -1.376,-0.186 -2.746,-0.44 -4.103,-0.775 -2.713,-0.673 -5.373,-1.666 -7.954,-3.063 -1.043,-0.507 -2.068,-1.052 -3.078,-1.634 -4.039,-2.328 -7.829,-5.24 -11.433,-8.218 -1.143,-0.88 -2.192,-1.831 -3.154,-2.839 -0.9620002,-1.009 -1.8360002,-2.077 -2.6430002,-3.198 -0.831,-1.042 -1.578,-2.119 -2.246,-3.228 -0.668,-1.11 -1.256,-2.25 -1.769,-3.416 -2.73199997,-6.779 -3.80399997,-14.869 -2.60899997,-22.446 0.199,-1.263 0.46099997,-2.511 0.79099997,-3.737 0.689,-4.372 2.717,-7.875 5.355,-10.959 0.876,-1.043 1.821,-2.042 2.813,-3.066 C 13.937588,9.5402094 17.853588,4.8412094 22.161588,0.53320939 c 1.175,8.61600001 -6.266,14.49099961 -8.538,22.43799961 -0.405,1.182 -0.715,2.393 -0.898,3.642 -0.185,1.25 -0.241,2.538 -0.141,3.874 0.071,1.393 0.289,2.752 0.647,4.076 1.08,3.969 3.418,7.618 7.161,10.281 1.079,0.839 2.208,1.633 3.391,2.388 4.134,2.646 8.967,4.826 13.721,6.809 1.188,0.496 2.373,0.979 3.54,1.457 10.099,2.606 15.191,12.397 21.457,20.23 0.783,0.784 1.566,1.958 3.228,2.068 1.034,0.414 1.77,0.645 1.77,0.645 z"
                    stroke-miterlimit="10" />
                <circle
                    class="pawnCircle"
                    r="37.120998"
                    cy="54.803211"
                    cx="67.298599"
                    stroke-miterlimit="10" />
                <g
                    transform="translate(-309.37541,-96.287791)">
                    <path
                        style="stroke:#000000;stroke-width:0.5;stroke-miterlimit:10"
                        d="m 376.82,210.512 c 0,0 -0.793,-1.354 -1.985,-3.391 -5.117,-9.039 -14.374,-15.334 -17.336,-25.33 7.405,6.664 18.143,7.035 27.824,6.915 2.354,-0.015 3.925,-0.024 3.925,-0.024 l -12.428,21.83 z"
                        stroke-miterlimit="10" />
                    <path
                        style="stroke:#000000;stroke-width:0.5;stroke-miterlimit:10"
                        d="m 376.961,210.512 c 0,0 0.793,-1.354 1.986,-3.391 5.117,-9.039 14.373,-15.334 17.336,-25.33 -7.406,6.664 -18.143,7.035 -27.824,6.915 -2.355,-0.015 -3.925,-0.024 -3.925,-0.024 l 12.427,21.83 z"
                        stroke-miterlimit="10" />
                </g>
                <g
                    transform="translate(-309.37541,-96.287791)">
                    <path
                        style="stroke:#000000;stroke-width:0.5;stroke-miterlimit:10"
                        d="m 376.789,224.731 c 0,0 -0.965,-1.648 -2.415,-4.125 -6.226,-10.999 -17.488,-18.657 -21.092,-30.819 9.01,8.108 22.074,8.559 33.853,8.414 2.864,-0.018 4.774,-0.029 4.774,-0.029 l -15.12,26.559 z"
                        stroke-miterlimit="10" />
                    <path
                        style="stroke:#000000;stroke-width:0.5;stroke-miterlimit:10"
                        d="m 376.961,224.731 c 0,0 0.965,-1.648 2.416,-4.125 6.225,-10.999 17.488,-18.657 21.092,-30.819 -9.01,8.108 -22.074,8.559 -33.853,8.414 -2.865,-0.018 -4.775,-0.029 -4.775,-0.029 l 15.12,26.559 z"
                        stroke-miterlimit="10" />
                </g>
            </svg>
        </g>
        <g id="player2Container" transform="rotate(270 985 985)">
            <svg
                xmlns:dc="http://purl.org/dc/elements/1.1/"
                xmlns:cc="http://creativecommons.org/ns#"
                xmlns:rdf="http://www.w3.org/1999/02/22-rdf-syntax-ns#"
                xmlns:svg="http://www.w3.org/2000/svg"
                xmlns="http://www.w3.org/2000/svg"
                version="1.1"
                id="player2"
                height="90" width="90"
                viewBox="0 0 135 135"
                preserveAspectRatio="xMinYMin meet"
                x="808" y="1872"
                ng-class="{hidden: activePawns.indexOf('player2') === -1}"
            >
                <path
                    style="stroke:#000000;stroke-width:0.5;stroke-miterlimit:10"
                    d="m 67.657588,78.441209 c 8.914,2.378 18.313,3.944 27.775,1.969 1.377,-0.186 2.746,-0.44 4.104,-0.775 2.713002,-0.673 5.373002,-1.666 7.955002,-3.063 1.043,-0.507 2.066,-1.052 3.076,-1.634 4.039,-2.328 7.83,-5.24 11.434,-8.218 1.143,-0.88 2.191,-1.831 3.154,-2.839 0.961,-1.009 1.836,-2.077 2.643,-3.197 0.83,-1.042 1.576,-2.119 2.244,-3.229 0.668,-1.11 1.256,-2.25 1.77,-3.416 2.732,-6.779 3.805,-14.869 2.609,-22.446 -0.199,-1.263 -0.461,-2.511 -0.791,-3.737 -0.689,-4.371 -2.717,-7.875 -5.355,-10.959 -0.875,-1.043 -1.82,-2.042 -2.813,-3.066 -4.244,-4.2899996 -8.16,-8.9889996 -12.469,-13.29799961 -1.174,8.61600001 6.266,14.49099961 8.537,22.43799961 0.406,1.183 0.717,2.393 0.898,3.642 0.186,1.25 0.242,2.538 0.141,3.874 -0.07,1.394 -0.289,2.753 -0.646,4.076 -1.08,3.969 -3.418,7.618 -7.16,10.281 -1.078,0.839 -2.209,1.633 -3.391,2.388 -4.135,2.646 -8.967,4.826 -13.721002,6.81 -1.189,0.496 -2.373,0.979 -3.541,1.457 -10.098,2.606 -15.189,12.397 -21.457,20.23 -0.783,0.784 -1.566,1.958 -3.227,2.068 -1.032,0.413 -1.769,0.644 -1.769,0.644 z"
                    stroke-miterlimit="10" />
                <path
                    style="stroke:#000000;stroke-width:0.5;stroke-miterlimit:10"
                    d="m 67.499588,78.441209 c -8.913,2.378 -18.313,3.944 -27.776,1.969 -1.376,-0.186 -2.746,-0.44 -4.103,-0.775 -2.713,-0.673 -5.373,-1.666 -7.954,-3.063 -1.043,-0.507 -2.068,-1.052 -3.078,-1.634 -4.039,-2.328 -7.829,-5.24 -11.433,-8.218 -1.143,-0.88 -2.192,-1.831 -3.154,-2.839 -0.9620002,-1.009 -1.8360002,-2.077 -2.6430002,-3.198 -0.831,-1.042 -1.578,-2.119 -2.246,-3.228 -0.668,-1.11 -1.256,-2.25 -1.769,-3.416 -2.73199997,-6.779 -3.80399997,-14.869 -2.60899997,-22.446 0.199,-1.263 0.46099997,-2.511 0.79099997,-3.737 0.689,-4.372 2.717,-7.875 5.355,-10.959 0.876,-1.043 1.821,-2.042 2.813,-3.066 C 13.937588,9.5402094 17.853588,4.8412094 22.161588,0.53320939 c 1.175,8.61600001 -6.266,14.49099961 -8.538,22.43799961 -0.405,1.182 -0.715,2.393 -0.898,3.642 -0.185,1.25 -0.241,2.538 -0.141,3.874 0.071,1.393 0.289,2.752 0.647,4.076 1.08,3.969 3.418,7.618 7.161,10.281 1.079,0.839 2.208,1.633 3.391,2.388 4.134,2.646 8.967,4.826 13.721,6.809 1.188,0.496 2.373,0.979 3.54,1.457 10.099,2.606 15.191,12.397 21.457,20.23 0.783,0.784 1.566,1.958 3.228,2.068 1.034,0.414 1.77,0.645 1.77,0.645 z"
                    stroke-miterlimit="10" />
                <circle
                    class="pawnCircle"
                    r="37.120998"
                    cy="54.803211"
                    cx="67.298599"
                    stroke-miterlimit="10" />
                <g
                    transform="translate(-309.37541,-96.287791)">
                    <path
                        style="stroke:#000000;stroke-width:0.5;stroke-miterlimit:10"
                        d="m 376.82,210.512 c 0,0 -0.793,-1.354 -1.985,-3.391 -5.117,-9.039 -14.374,-15.334 -17.336,-25.33 7.405,6.664 18.143,7.035 27.824,6.915 2.354,-0.015 3.925,-0.024 3.925,-0.024 l -12.428,21.83 z"
                        stroke-miterlimit="10" />
                    <path
                        style="stroke:#000000;stroke-width:0.5;stroke-miterlimit:10"
                        d="m 376.961,210.512 c 0,0 0.793,-1.354 1.986,-3.391 5.117,-9.039 14.373,-15.334 17.336,-25.33 -7.406,6.664 -18.143,7.035 -27.824,6.915 -2.355,-0.015 -3.925,-0.024 -3.925,-0.024 l 12.427,21.83 z"
                        stroke-miterlimit="10" />
                </g>
                <g
                    transform="translate(-309.37541,-96.287791)">
                    <path
                        style="stroke:#000000;stroke-width:0.5;stroke-miterlimit:10"
                        d="m 376.789,224.731 c 0,0 -0.965,-1.648 -2.415,-4.125 -6.226,-10.999 -17.488,-18.657 -21.092,-30.819 9.01,8.108 22.074,8.559 33.853,8.414 2.864,-0.018 4.774,-0.029 4.774,-0.029 l -15.12,26.559 z"
                        stroke-miterlimit="10" />
                    <path
                        style="stroke:#000000;stroke-width:0.5;stroke-miterlimit:10"
                        d="m 376.961,224.731 c 0,0 0.965,-1.648 2.416,-4.125 6.225,-10.999 17.488,-18.657 21.092,-30.819 -9.01,8.108 -22.074,8.559 -33.853,8.414 -2.865,-0.018 -4.775,-0.029 -4.775,-0.029 l 15.12,26.559 z"
                        stroke-miterlimit="10" />
                </g>
            </svg>
        </g>
        <g id="player3Container" transform="rotate(225 985 985)">
            <svg
                xmlns:dc="http://purl.org/dc/elements/1.1/"
                xmlns:cc="http://creativecommons.org/ns#"
                xmlns:rdf="http://www.w3.org/1999/02/22-rdf-syntax-ns#"
                xmlns:svg="http://www.w3.org/2000/svg"
                xmlns="http://www.w3.org/2000/svg"
                version="1.1"
                id="player3"
                height="90" width="90"
                viewBox="0 0 135 135"
                preserveAspectRatio="xMinYMin meet"
                x="808" y="1872"
                ng-class="{hidden: activePawns.indexOf('player3') === -1}"
            >
                <path
                    style="stroke:#000000;stroke-width:0.5;stroke-miterlimit:10"
                    d="m 67.657588,78.441209 c 8.914,2.378 18.313,3.944 27.775,1.969 1.377,-0.186 2.746,-0.44 4.104,-0.775 2.713002,-0.673 5.373002,-1.666 7.955002,-3.063 1.043,-0.507 2.066,-1.052 3.076,-1.634 4.039,-2.328 7.83,-5.24 11.434,-8.218 1.143,-0.88 2.191,-1.831 3.154,-2.839 0.961,-1.009 1.836,-2.077 2.643,-3.197 0.83,-1.042 1.576,-2.119 2.244,-3.229 0.668,-1.11 1.256,-2.25 1.77,-3.416 2.732,-6.779 3.805,-14.869 2.609,-22.446 -0.199,-1.263 -0.461,-2.511 -0.791,-3.737 -0.689,-4.371 -2.717,-7.875 -5.355,-10.959 -0.875,-1.043 -1.82,-2.042 -2.813,-3.066 -4.244,-4.2899996 -8.16,-8.9889996 -12.469,-13.29799961 -1.174,8.61600001 6.266,14.49099961 8.537,22.43799961 0.406,1.183 0.717,2.393 0.898,3.642 0.186,1.25 0.242,2.538 0.141,3.874 -0.07,1.394 -0.289,2.753 -0.646,4.076 -1.08,3.969 -3.418,7.618 -7.16,10.281 -1.078,0.839 -2.209,1.633 -3.391,2.388 -4.135,2.646 -8.967,4.826 -13.721002,6.81 -1.189,0.496 -2.373,0.979 -3.541,1.457 -10.098,2.606 -15.189,12.397 -21.457,20.23 -0.783,0.784 -1.566,1.958 -3.227,2.068 -1.032,0.413 -1.769,0.644 -1.769,0.644 z"
                    stroke-miterlimit="10" />
                <path
                    style="stroke:#000000;stroke-width:0.5;stroke-miterlimit:10"
                    d="m 67.499588,78.441209 c -8.913,2.378 -18.313,3.944 -27.776,1.969 -1.376,-0.186 -2.746,-0.44 -4.103,-0.775 -2.713,-0.673 -5.373,-1.666 -7.954,-3.063 -1.043,-0.507 -2.068,-1.052 -3.078,-1.634 -4.039,-2.328 -7.829,-5.24 -11.433,-8.218 -1.143,-0.88 -2.192,-1.831 -3.154,-2.839 -0.9620002,-1.009 -1.8360002,-2.077 -2.6430002,-3.198 -0.831,-1.042 -1.578,-2.119 -2.246,-3.228 -0.668,-1.11 -1.256,-2.25 -1.769,-3.416 -2.73199997,-6.779 -3.80399997,-14.869 -2.60899997,-22.446 0.199,-1.263 0.46099997,-2.511 0.79099997,-3.737 0.689,-4.372 2.717,-7.875 5.355,-10.959 0.876,-1.043 1.821,-2.042 2.813,-3.066 C 13.937588,9.5402094 17.853588,4.8412094 22.161588,0.53320939 c 1.175,8.61600001 -6.266,14.49099961 -8.538,22.43799961 -0.405,1.182 -0.715,2.393 -0.898,3.642 -0.185,1.25 -0.241,2.538 -0.141,3.874 0.071,1.393 0.289,2.752 0.647,4.076 1.08,3.969 3.418,7.618 7.161,10.281 1.079,0.839 2.208,1.633 3.391,2.388 4.134,2.646 8.967,4.826 13.721,6.809 1.188,0.496 2.373,0.979 3.54,1.457 10.099,2.606 15.191,12.397 21.457,20.23 0.783,0.784 1.566,1.958 3.228,2.068 1.034,0.414 1.77,0.645 1.77,0.645 z"
                    stroke-miterlimit="10" />
                <circle
                    class="pawnCircle"
                    r="37.120998"
                    cy="54.803211"
                    cx="67.298599"
                    stroke-miterlimit="10" />
                <g
                    transform="translate(-309.37541,-96.287791)">
                    <path
                        style="stroke:#000000;stroke-width:0.5;stroke-miterlimit:10"
                        d="m 376.82,210.512 c 0,0 -0.793,-1.354 -1.985,-3.391 -5.117,-9.039 -14.374,-15.334 -17.336,-25.33 7.405,6.664 18.143,7.035 27.824,6.915 2.354,-0.015 3.925,-0.024 3.925,-0.024 l -12.428,21.83 z"
                        stroke-miterlimit="10" />
                    <path
                        style="stroke:#000000;stroke-width:0.5;stroke-miterlimit:10"
                        d="m 376.961,210.512 c 0,0 0.793,-1.354 1.986,-3.391 5.117,-9.039 14.373,-15.334 17.336,-25.33 -7.406,6.664 -18.143,7.035 -27.824,6.915 -2.355,-0.015 -3.925,-0.024 -3.925,-0.024 l 12.427,21.83 z"
                        stroke-miterlimit="10" />
                </g>
                <g
                    transform="translate(-309.37541,-96.287791)">
                    <path
                        style="stroke:#000000;stroke-width:0.5;stroke-miterlimit:10"
                        d="m 376.789,224.731 c 0,0 -0.965,-1.648 -2.415,-4.125 -6.226,-10.999 -17.488,-18.657 -21.092,-30.819 9.01,8.108 22.074,8.559 33.853,8.414 2.864,-0.018 4.774,-0.029 4.774,-0.029 l -15.12,26.559 z"
                        stroke-miterlimit="10" />
                    <path
                        style="stroke:#000000;stroke-width:0.5;stroke-miterlimit:10"
                        d="m 376.961,224.731 c 0,0 0.965,-1.648 2.416,-4.125 6.225,-10.999 17.488,-18.657 21.092,-30.819 -9.01,8.108 -22.074,8.559 -33.853,8.414 -2.865,-0.018 -4.775,-0.029 -4.775,-0.029 l 15.12,26.559 z"
                        stroke-miterlimit="10" />
                </g>
            </svg>
        </g>
        <g id="player4Container" transform="rotate(180 985 985)">
            <svg
                xmlns:dc="http://purl.org/dc/elements/1.1/"
                xmlns:cc="http://creativecommons.org/ns#"
                xmlns:rdf="http://www.w3.org/1999/02/22-rdf-syntax-ns#"
                xmlns:svg="http://www.w3.org/2000/svg"
                xmlns="http://www.w3.org/2000/svg"
                version="1.1"
                id="player4"
                height="90" width="90"
                viewBox="0 0 135 135"
                preserveAspectRatio="xMinYMin meet"
                x="808" y="1872"
                ng-class="{hidden: activePawns.indexOf('player4') === -1}"
            >
                <path
                    style="stroke:#000000;stroke-width:0.5;stroke-miterlimit:10"
                    d="m 67.657588,78.441209 c 8.914,2.378 18.313,3.944 27.775,1.969 1.377,-0.186 2.746,-0.44 4.104,-0.775 2.713002,-0.673 5.373002,-1.666 7.955002,-3.063 1.043,-0.507 2.066,-1.052 3.076,-1.634 4.039,-2.328 7.83,-5.24 11.434,-8.218 1.143,-0.88 2.191,-1.831 3.154,-2.839 0.961,-1.009 1.836,-2.077 2.643,-3.197 0.83,-1.042 1.576,-2.119 2.244,-3.229 0.668,-1.11 1.256,-2.25 1.77,-3.416 2.732,-6.779 3.805,-14.869 2.609,-22.446 -0.199,-1.263 -0.461,-2.511 -0.791,-3.737 -0.689,-4.371 -2.717,-7.875 -5.355,-10.959 -0.875,-1.043 -1.82,-2.042 -2.813,-3.066 -4.244,-4.2899996 -8.16,-8.9889996 -12.469,-13.29799961 -1.174,8.61600001 6.266,14.49099961 8.537,22.43799961 0.406,1.183 0.717,2.393 0.898,3.642 0.186,1.25 0.242,2.538 0.141,3.874 -0.07,1.394 -0.289,2.753 -0.646,4.076 -1.08,3.969 -3.418,7.618 -7.16,10.281 -1.078,0.839 -2.209,1.633 -3.391,2.388 -4.135,2.646 -8.967,4.826 -13.721002,6.81 -1.189,0.496 -2.373,0.979 -3.541,1.457 -10.098,2.606 -15.189,12.397 -21.457,20.23 -0.783,0.784 -1.566,1.958 -3.227,2.068 -1.032,0.413 -1.769,0.644 -1.769,0.644 z"
                    stroke-miterlimit="10" />
                <path
                    style="stroke:#000000;stroke-width:0.5;stroke-miterlimit:10"
                    d="m 67.499588,78.441209 c -8.913,2.378 -18.313,3.944 -27.776,1.969 -1.376,-0.186 -2.746,-0.44 -4.103,-0.775 -2.713,-0.673 -5.373,-1.666 -7.954,-3.063 -1.043,-0.507 -2.068,-1.052 -3.078,-1.634 -4.039,-2.328 -7.829,-5.24 -11.433,-8.218 -1.143,-0.88 -2.192,-1.831 -3.154,-2.839 -0.9620002,-1.009 -1.8360002,-2.077 -2.6430002,-3.198 -0.831,-1.042 -1.578,-2.119 -2.246,-3.228 -0.668,-1.11 -1.256,-2.25 -1.769,-3.416 -2.73199997,-6.779 -3.80399997,-14.869 -2.60899997,-22.446 0.199,-1.263 0.46099997,-2.511 0.79099997,-3.737 0.689,-4.372 2.717,-7.875 5.355,-10.959 0.876,-1.043 1.821,-2.042 2.813,-3.066 C 13.937588,9.5402094 17.853588,4.8412094 22.161588,0.53320939 c 1.175,8.61600001 -6.266,14.49099961 -8.538,22.43799961 -0.405,1.182 -0.715,2.393 -0.898,3.642 -0.185,1.25 -0.241,2.538 -0.141,3.874 0.071,1.393 0.289,2.752 0.647,4.076 1.08,3.969 3.418,7.618 7.161,10.281 1.079,0.839 2.208,1.633 3.391,2.388 4.134,2.646 8.967,4.826 13.721,6.809 1.188,0.496 2.373,0.979 3.54,1.457 10.099,2.606 15.191,12.397 21.457,20.23 0.783,0.784 1.566,1.958 3.228,2.068 1.034,0.414 1.77,0.645 1.77,0.645 z"
                    stroke-miterlimit="10" />
                <circle
                    class="pawnCircle"
                    r="37.120998"
                    cy="54.803211"
                    cx="67.298599"
                    stroke-miterlimit="10" />
                <g
                    transform="translate(-309.37541,-96.287791)">
                    <path
                        style="stroke:#000000;stroke-width:0.5;stroke-miterlimit:10"
                        d="m 376.82,210.512 c 0,0 -0.793,-1.354 -1.985,-3.391 -5.117,-9.039 -14.374,-15.334 -17.336,-25.33 7.405,6.664 18.143,7.035 27.824,6.915 2.354,-0.015 3.925,-0.024 3.925,-0.024 l -12.428,21.83 z"
                        stroke-miterlimit="10" />
                    <path
                        style="stroke:#000000;stroke-width:0.5;stroke-miterlimit:10"
                        d="m 376.961,210.512 c 0,0 0.793,-1.354 1.986,-3.391 5.117,-9.039 14.373,-15.334 17.336,-25.33 -7.406,6.664 -18.143,7.035 -27.824,6.915 -2.355,-0.015 -3.925,-0.024 -3.925,-0.024 l 12.427,21.83 z"
                        stroke-miterlimit="10" />
                </g>
                <g
                    transform="translate(-309.37541,-96.287791)">
                    <path
                        style="stroke:#000000;stroke-width:0.5;stroke-miterlimit:10"
                        d="m 376.789,224.731 c 0,0 -0.965,-1.648 -2.415,-4.125 -6.226,-10.999 -17.488,-18.657 -21.092,-30.819 9.01,8.108 22.074,8.559 33.853,8.414 2.864,-0.018 4.774,-0.029 4.774,-0.029 l -15.12,26.559 z"
                        stroke-miterlimit="10" />
                    <path
                        style="stroke:#000000;stroke-width:0.5;stroke-miterlimit:10"
                        d="m 376.961,224.731 c 0,0 0.965,-1.648 2.416,-4.125 6.225,-10.999 17.488,-18.657 21.092,-30.819 -9.01,8.108 -22.074,8.559 -33.853,8.414 -2.865,-0.018 -4.775,-0.029 -4.775,-0.029 l 15.12,26.559 z"
                        stroke-miterlimit="10" />
                </g>
            </svg>
        </g>
        <g id="player5Container" transform="rotate(135 985 985)">
            <svg
                xmlns:dc="http://purl.org/dc/elements/1.1/"
                xmlns:cc="http://creativecommons.org/ns#"
                xmlns:rdf="http://www.w3.org/1999/02/22-rdf-syntax-ns#"
                xmlns:svg="http://www.w3.org/2000/svg"
                xmlns="http://www.w3.org/2000/svg"
                version="1.1"
                id="player5"
                height="90" width="90"
                viewBox="0 0 135 135"
                preserveAspectRatio="xMinYMin meet"
                x="808" y="1872"
                ng-class="{hidden: activePawns.indexOf('player5') === -1}"
            >
                <path
                    style="stroke:#000000;stroke-width:0.5;stroke-miterlimit:10"
                    d="m 67.657588,78.441209 c 8.914,2.378 18.313,3.944 27.775,1.969 1.377,-0.186 2.746,-0.44 4.104,-0.775 2.713002,-0.673 5.373002,-1.666 7.955002,-3.063 1.043,-0.507 2.066,-1.052 3.076,-1.634 4.039,-2.328 7.83,-5.24 11.434,-8.218 1.143,-0.88 2.191,-1.831 3.154,-2.839 0.961,-1.009 1.836,-2.077 2.643,-3.197 0.83,-1.042 1.576,-2.119 2.244,-3.229 0.668,-1.11 1.256,-2.25 1.77,-3.416 2.732,-6.779 3.805,-14.869 2.609,-22.446 -0.199,-1.263 -0.461,-2.511 -0.791,-3.737 -0.689,-4.371 -2.717,-7.875 -5.355,-10.959 -0.875,-1.043 -1.82,-2.042 -2.813,-3.066 -4.244,-4.2899996 -8.16,-8.9889996 -12.469,-13.29799961 -1.174,8.61600001 6.266,14.49099961 8.537,22.43799961 0.406,1.183 0.717,2.393 0.898,3.642 0.186,1.25 0.242,2.538 0.141,3.874 -0.07,1.394 -0.289,2.753 -0.646,4.076 -1.08,3.969 -3.418,7.618 -7.16,10.281 -1.078,0.839 -2.209,1.633 -3.391,2.388 -4.135,2.646 -8.967,4.826 -13.721002,6.81 -1.189,0.496 -2.373,0.979 -3.541,1.457 -10.098,2.606 -15.189,12.397 -21.457,20.23 -0.783,0.784 -1.566,1.958 -3.227,2.068 -1.032,0.413 -1.769,0.644 -1.769,0.644 z"
                    stroke-miterlimit="10" />
                <path
                    style="stroke:#000000;stroke-width:0.5;stroke-miterlimit:10"
                    d="m 67.499588,78.441209 c -8.913,2.378 -18.313,3.944 -27.776,1.969 -1.376,-0.186 -2.746,-0.44 -4.103,-0.775 -2.713,-0.673 -5.373,-1.666 -7.954,-3.063 -1.043,-0.507 -2.068,-1.052 -3.078,-1.634 -4.039,-2.328 -7.829,-5.24 -11.433,-8.218 -1.143,-0.88 -2.192,-1.831 -3.154,-2.839 -0.9620002,-1.009 -1.8360002,-2.077 -2.6430002,-3.198 -0.831,-1.042 -1.578,-2.119 -2.246,-3.228 -0.668,-1.11 -1.256,-2.25 -1.769,-3.416 -2.73199997,-6.779 -3.80399997,-14.869 -2.60899997,-22.446 0.199,-1.263 0.46099997,-2.511 0.79099997,-3.737 0.689,-4.372 2.717,-7.875 5.355,-10.959 0.876,-1.043 1.821,-2.042 2.813,-3.066 C 13.937588,9.5402094 17.853588,4.8412094 22.161588,0.53320939 c 1.175,8.61600001 -6.266,14.49099961 -8.538,22.43799961 -0.405,1.182 -0.715,2.393 -0.898,3.642 -0.185,1.25 -0.241,2.538 -0.141,3.874 0.071,1.393 0.289,2.752 0.647,4.076 1.08,3.969 3.418,7.618 7.161,10.281 1.079,0.839 2.208,1.633 3.391,2.388 4.134,2.646 8.967,4.826 13.721,6.809 1.188,0.496 2.373,0.979 3.54,1.457 10.099,2.606 15.191,12.397 21.457,20.23 0.783,0.784 1.566,1.958 3.228,2.068 1.034,0.414 1.77,0.645 1.77,0.645 z"
                    stroke-miterlimit="10" />
                <circle
                    class="pawnCircle"
                    r="37.120998"
                    cy="54.803211"
                    cx="67.298599"
                    stroke-miterlimit="10" />
                <g
                    transform="translate(-309.37541,-96.287791)">
                    <path
                        style="stroke:#000000;stroke-width:0.5;stroke-miterlimit:10"
                        d="m 376.82,210.512 c 0,0 -0.793,-1.354 -1.985,-3.391 -5.117,-9.039 -14.374,-15.334 -17.336,-25.33 7.405,6.664 18.143,7.035 27.824,6.915 2.354,-0.015 3.925,-0.024 3.925,-0.024 l -12.428,21.83 z"
                        stroke-miterlimit="10" />
                    <path
                        style="stroke:#000000;stroke-width:0.5;stroke-miterlimit:10"
                        d="m 376.961,210.512 c 0,0 0.793,-1.354 1.986,-3.391 5.117,-9.039 14.373,-15.334 17.336,-25.33 -7.406,6.664 -18.143,7.035 -27.824,6.915 -2.355,-0.015 -3.925,-0.024 -3.925,-0.024 l 12.427,21.83 z"
                        stroke-miterlimit="10" />
                </g>
                <g
                    transform="translate(-309.37541,-96.287791)">
                    <path
                        style="stroke:#000000;stroke-width:0.5;stroke-miterlimit:10"
                        d="m 376.789,224.731 c 0,0 -0.965,-1.648 -2.415,-4.125 -6.226,-10.999 -17.488,-18.657 -21.092,-30.819 9.01,8.108 22.074,8.559 33.853,8.414 2.864,-0.018 4.774,-0.029 4.774,-0.029 l -15.12,26.559 z"
                        stroke-miterlimit="10" />
                    <path
                        style="stroke:#000000;stroke-width:0.5;stroke-miterlimit:10"
                        d="m 376.961,224.731 c 0,0 0.965,-1.648 2.416,-4.125 6.225,-10.999 17.488,-18.657 21.092,-30.819 -9.01,8.108 -22.074,8.559 -33.853,8.414 -2.865,-0.018 -4.775,-0.029 -4.775,-0.029 l 15.12,26.559 z"
                        stroke-miterlimit="10" />
                </g>
            </svg>
        </g>
        <g id="player6Container" transform="rotate(90 985 985)">
            <svg
                xmlns:dc="http://purl.org/dc/elements/1.1/"
                xmlns:cc="http://creativecommons.org/ns#"
                xmlns:rdf="http://www.w3.org/1999/02/22-rdf-syntax-ns#"
                xmlns:svg="http://www.w3.org/2000/svg"
                xmlns="http://www.w3.org/2000/svg"
                version="1.1"
                id="player6"
                height="90" width="90"
                viewBox="0 0 135 135"
                preserveAspectRatio="xMinYMin meet"
                x="808" y="1872"
                ng-class="{hidden: activePawns.indexOf('player6') === -1}"
            >
                <path
                    style="stroke:#000000;stroke-width:0.5;stroke-miterlimit:10"
                    d="m 67.657588,78.441209 c 8.914,2.378 18.313,3.944 27.775,1.969 1.377,-0.186 2.746,-0.44 4.104,-0.775 2.713002,-0.673 5.373002,-1.666 7.955002,-3.063 1.043,-0.507 2.066,-1.052 3.076,-1.634 4.039,-2.328 7.83,-5.24 11.434,-8.218 1.143,-0.88 2.191,-1.831 3.154,-2.839 0.961,-1.009 1.836,-2.077 2.643,-3.197 0.83,-1.042 1.576,-2.119 2.244,-3.229 0.668,-1.11 1.256,-2.25 1.77,-3.416 2.732,-6.779 3.805,-14.869 2.609,-22.446 -0.199,-1.263 -0.461,-2.511 -0.791,-3.737 -0.689,-4.371 -2.717,-7.875 -5.355,-10.959 -0.875,-1.043 -1.82,-2.042 -2.813,-3.066 -4.244,-4.2899996 -8.16,-8.9889996 -12.469,-13.29799961 -1.174,8.61600001 6.266,14.49099961 8.537,22.43799961 0.406,1.183 0.717,2.393 0.898,3.642 0.186,1.25 0.242,2.538 0.141,3.874 -0.07,1.394 -0.289,2.753 -0.646,4.076 -1.08,3.969 -3.418,7.618 -7.16,10.281 -1.078,0.839 -2.209,1.633 -3.391,2.388 -4.135,2.646 -8.967,4.826 -13.721002,6.81 -1.189,0.496 -2.373,0.979 -3.541,1.457 -10.098,2.606 -15.189,12.397 -21.457,20.23 -0.783,0.784 -1.566,1.958 -3.227,2.068 -1.032,0.413 -1.769,0.644 -1.769,0.644 z"
                    stroke-miterlimit="10" />
                <path
                    style="stroke:#000000;stroke-width:0.5;stroke-miterlimit:10"
                    d="m 67.499588,78.441209 c -8.913,2.378 -18.313,3.944 -27.776,1.969 -1.376,-0.186 -2.746,-0.44 -4.103,-0.775 -2.713,-0.673 -5.373,-1.666 -7.954,-3.063 -1.043,-0.507 -2.068,-1.052 -3.078,-1.634 -4.039,-2.328 -7.829,-5.24 -11.433,-8.218 -1.143,-0.88 -2.192,-1.831 -3.154,-2.839 -0.9620002,-1.009 -1.8360002,-2.077 -2.6430002,-3.198 -0.831,-1.042 -1.578,-2.119 -2.246,-3.228 -0.668,-1.11 -1.256,-2.25 -1.769,-3.416 -2.73199997,-6.779 -3.80399997,-14.869 -2.60899997,-22.446 0.199,-1.263 0.46099997,-2.511 0.79099997,-3.737 0.689,-4.372 2.717,-7.875 5.355,-10.959 0.876,-1.043 1.821,-2.042 2.813,-3.066 C 13.937588,9.5402094 17.853588,4.8412094 22.161588,0.53320939 c 1.175,8.61600001 -6.266,14.49099961 -8.538,22.43799961 -0.405,1.182 -0.715,2.393 -0.898,3.642 -0.185,1.25 -0.241,2.538 -0.141,3.874 0.071,1.393 0.289,2.752 0.647,4.076 1.08,3.969 3.418,7.618 7.161,10.281 1.079,0.839 2.208,1.633 3.391,2.388 4.134,2.646 8.967,4.826 13.721,6.809 1.188,0.496 2.373,0.979 3.54,1.457 10.099,2.606 15.191,12.397 21.457,20.23 0.783,0.784 1.566,1.958 3.228,2.068 1.034,0.414 1.77,0.645 1.77,0.645 z"
                    stroke-miterlimit="10" />
                <circle
                    class="pawnCircle"
                    r="37.120998"
                    cy="54.803211"
                    cx="67.298599"
                    stroke-miterlimit="10" />
                <g
                    transform="translate(-309.37541,-96.287791)">
                    <path
                        style="stroke:#000000;stroke-width:0.5;stroke-miterlimit:10"
                        d="m 376.82,210.512 c 0,0 -0.793,-1.354 -1.985,-3.391 -5.117,-9.039 -14.374,-15.334 -17.336,-25.33 7.405,6.664 18.143,7.035 27.824,6.915 2.354,-0.015 3.925,-0.024 3.925,-0.024 l -12.428,21.83 z"
                        stroke-miterlimit="10" />
                    <path
                        style="stroke:#000000;stroke-width:0.5;stroke-miterlimit:10"
                        d="m 376.961,210.512 c 0,0 0.793,-1.354 1.986,-3.391 5.117,-9.039 14.373,-15.334 17.336,-25.33 -7.406,6.664 -18.143,7.035 -27.824,6.915 -2.355,-0.015 -3.925,-0.024 -3.925,-0.024 l 12.427,21.83 z"
                        stroke-miterlimit="10" />
                </g>
                <g
                    transform="translate(-309.37541,-96.287791)">
                    <path
                        style="stroke:#000000;stroke-width:0.5;stroke-miterlimit:10"
                        d="m 376.789,224.731 c 0,0 -0.965,-1.648 -2.415,-4.125 -6.226,-10.999 -17.488,-18.657 -21.092,-30.819 9.01,8.108 22.074,8.559 33.853,8.414 2.864,-0.018 4.774,-0.029 4.774,-0.029 l -15.12,26.559 z"
                        stroke-miterlimit="10" />
                    <path
                        style="stroke:#000000;stroke-width:0.5;stroke-miterlimit:10"
                        d="m 376.961,224.731 c 0,0 0.965,-1.648 2.416,-4.125 6.225,-10.999 17.488,-18.657 21.092,-30.819 -9.01,8.108 -22.074,8.559 -33.853,8.414 -2.865,-0.018 -4.775,-0.029 -4.775,-0.029 l 15.12,26.559 z"
                        stroke-miterlimit="10" />
                </g>
            </svg>
        </g>
        <g id="player7Container" transform="rotate(45 985 985)">
            <svg
                xmlns:dc="http://purl.org/dc/elements/1.1/"
                xmlns:cc="http://creativecommons.org/ns#"
                xmlns:rdf="http://www.w3.org/1999/02/22-rdf-syntax-ns#"
                xmlns:svg="http://www.w3.org/2000/svg"
                xmlns="http://www.w3.org/2000/svg"
                version="1.1"
                id="player7"
                height="90" width="90"
                viewBox="0 0 135 135"
                preserveAspectRatio="xMinYMin meet"
                x="808" y="1872"
                ng-class="{hidden: activePawns.indexOf('player7') === -1}"
            >
                <path
                    style="stroke:#000000;stroke-width:0.5;stroke-miterlimit:10"
                    d="m 67.657588,78.441209 c 8.914,2.378 18.313,3.944 27.775,1.969 1.377,-0.186 2.746,-0.44 4.104,-0.775 2.713002,-0.673 5.373002,-1.666 7.955002,-3.063 1.043,-0.507 2.066,-1.052 3.076,-1.634 4.039,-2.328 7.83,-5.24 11.434,-8.218 1.143,-0.88 2.191,-1.831 3.154,-2.839 0.961,-1.009 1.836,-2.077 2.643,-3.197 0.83,-1.042 1.576,-2.119 2.244,-3.229 0.668,-1.11 1.256,-2.25 1.77,-3.416 2.732,-6.779 3.805,-14.869 2.609,-22.446 -0.199,-1.263 -0.461,-2.511 -0.791,-3.737 -0.689,-4.371 -2.717,-7.875 -5.355,-10.959 -0.875,-1.043 -1.82,-2.042 -2.813,-3.066 -4.244,-4.2899996 -8.16,-8.9889996 -12.469,-13.29799961 -1.174,8.61600001 6.266,14.49099961 8.537,22.43799961 0.406,1.183 0.717,2.393 0.898,3.642 0.186,1.25 0.242,2.538 0.141,3.874 -0.07,1.394 -0.289,2.753 -0.646,4.076 -1.08,3.969 -3.418,7.618 -7.16,10.281 -1.078,0.839 -2.209,1.633 -3.391,2.388 -4.135,2.646 -8.967,4.826 -13.721002,6.81 -1.189,0.496 -2.373,0.979 -3.541,1.457 -10.098,2.606 -15.189,12.397 -21.457,20.23 -0.783,0.784 -1.566,1.958 -3.227,2.068 -1.032,0.413 -1.769,0.644 -1.769,0.644 z"
                    stroke-miterlimit="10" />
                <path
                    style="stroke:#000000;stroke-width:0.5;stroke-miterlimit:10"
                    d="m 67.499588,78.441209 c -8.913,2.378 -18.313,3.944 -27.776,1.969 -1.376,-0.186 -2.746,-0.44 -4.103,-0.775 -2.713,-0.673 -5.373,-1.666 -7.954,-3.063 -1.043,-0.507 -2.068,-1.052 -3.078,-1.634 -4.039,-2.328 -7.829,-5.24 -11.433,-8.218 -1.143,-0.88 -2.192,-1.831 -3.154,-2.839 -0.9620002,-1.009 -1.8360002,-2.077 -2.6430002,-3.198 -0.831,-1.042 -1.578,-2.119 -2.246,-3.228 -0.668,-1.11 -1.256,-2.25 -1.769,-3.416 -2.73199997,-6.779 -3.80399997,-14.869 -2.60899997,-22.446 0.199,-1.263 0.46099997,-2.511 0.79099997,-3.737 0.689,-4.372 2.717,-7.875 5.355,-10.959 0.876,-1.043 1.821,-2.042 2.813,-3.066 C 13.937588,9.5402094 17.853588,4.8412094 22.161588,0.53320939 c 1.175,8.61600001 -6.266,14.49099961 -8.538,22.43799961 -0.405,1.182 -0.715,2.393 -0.898,3.642 -0.185,1.25 -0.241,2.538 -0.141,3.874 0.071,1.393 0.289,2.752 0.647,4.076 1.08,3.969 3.418,7.618 7.161,10.281 1.079,0.839 2.208,1.633 3.391,2.388 4.134,2.646 8.967,4.826 13.721,6.809 1.188,0.496 2.373,0.979 3.54,1.457 10.099,2.606 15.191,12.397 21.457,20.23 0.783,0.784 1.566,1.958 3.228,2.068 1.034,0.414 1.77,0.645 1.77,0.645 z"
                    stroke-miterlimit="10" />
                <circle
                    class="pawnCircle"
                    r="37.120998"
                    cy="54.803211"
                    cx="67.298599"
                    stroke-miterlimit="10" />
                <g
                    transform="translate(-309.37541,-96.287791)">
                    <path
                        style="stroke:#000000;stroke-width:0.5;stroke-miterlimit:10"
                        d="m 376.82,210.512 c 0,0 -0.793,-1.354 -1.985,-3.391 -5.117,-9.039 -14.374,-15.334 -17.336,-25.33 7.405,6.664 18.143,7.035 27.824,6.915 2.354,-0.015 3.925,-0.024 3.925,-0.024 l -12.428,21.83 z"
                        stroke-miterlimit="10" />
                    <path
                        style="stroke:#000000;stroke-width:0.5;stroke-miterlimit:10"
                        d="m 376.961,210.512 c 0,0 0.793,-1.354 1.986,-3.391 5.117,-9.039 14.373,-15.334 17.336,-25.33 -7.406,6.664 -18.143,7.035 -27.824,6.915 -2.355,-0.015 -3.925,-0.024 -3.925,-0.024 l 12.427,21.83 z"
                        stroke-miterlimit="10" />
                </g>
                <g
                    transform="translate(-309.37541,-96.287791)">
                    <path
                        style="stroke:#000000;stroke-width:0.5;stroke-miterlimit:10"
                        d="m 376.789,224.731 c 0,0 -0.965,-1.648 -2.415,-4.125 -6.226,-10.999 -17.488,-18.657 -21.092,-30.819 9.01,8.108 22.074,8.559 33.853,8.414 2.864,-0.018 4.774,-0.029 4.774,-0.029 l -15.12,26.559 z"
                        stroke-miterlimit="10" />
                    <path
                        style="stroke:#000000;stroke-width:0.5;stroke-miterlimit:10"
                        d="m 376.961,224.731 c 0,0 0.965,-1.648 2.416,-4.125 6.225,-10.999 17.488,-18.657 21.092,-30.819 -9.01,8.108 -22.074,8.559 -33.853,8.414 -2.865,-0.018 -4.775,-0.029 -4.775,-0.029 l 15.12,26.559 z"
                        stroke-miterlimit="10" />
                </g>
            </svg>
        </g>
    </g>
</svg>
